<svg xmlns="http://www.w3.org/2000/svg" xmlns:xlink="http://www.w3.org/1999/xlink" width="500" zoomAndPan="magnify" viewBox="0 0 375 374.999991" height="500" preserveAspectRatio="xMidYMid meet" version="1.0"><defs><g/><clipPath id="23edea01e2"><path d="M 142.328125 104.609375 L 214 104.609375 L 214 128 L 142.328125 128 Z M 142.328125 104.609375 " clip-rule="nonzero"/></clipPath><clipPath id="c52f54aeb8"><path d="M 157 126 L 216.578125 126 L 216.578125 212.609375 L 157 212.609375 Z M 157 126 " clip-rule="nonzero"/></clipPath></defs><g clip-path="url(#23edea01e2)"><path fill="#00adef" d="M 213.855469 116.699219 C 213.777344 117.875 212.949219 118.875 211.832031 119.277344 L 188.421875 127.695312 C 188.097656 127.8125 187.757812 127.871094 187.417969 127.871094 C 187.082031 127.871094 186.742188 127.8125 186.417969 127.695312 L 164.632812 119.863281 C 163.945312 119.617188 163.609375 118.832031 163.929688 118.15625 C 164.210938 117.570312 164.921875 117.320312 165.539062 117.542969 L 187.273438 125.355469 C 187.367188 125.390625 187.472656 125.390625 187.566406 125.355469 L 211.066406 116.90625 C 211.300781 116.824219 211.351562 116.644531 211.351562 116.507812 C 211.351562 116.394531 211.320312 116.195312 211.074219 116.101562 L 187.574219 107.195312 C 187.476562 107.15625 187.363281 107.15625 187.265625 107.195312 L 171.015625 113.355469 C 171.59375 113.558594 172.1875 113.78125 172.789062 114.023438 C 181.414062 117.472656 187.320312 114.574219 189.445312 113.183594 C 189.652344 113.046875 189.890625 112.980469 190.128906 112.980469 C 190.476562 112.980469 190.820312 113.125 191.066406 113.398438 C 191.574219 113.96875 191.453125 114.847656 190.8125 115.265625 C 188.226562 116.949219 181.480469 120.179688 171.855469 116.335938 C 158.371094 110.945312 153.070312 115.570312 151.386719 117.867188 L 152.929688 118.796875 L 149.144531 124.859375 C 148.183594 126.390625 146.179688 126.902344 144.59375 126.015625 C 142.917969 125.082031 142.359375 122.949219 143.367188 121.320312 L 147.089844 115.285156 L 149.269531 116.59375 C 151.082031 114.109375 156.070312 109.53125 167.078125 112.183594 L 186.371094 104.871094 C 187.046875 104.613281 187.792969 104.613281 188.46875 104.871094 L 211.96875 113.777344 C 213.183594 114.238281 213.9375 115.398438 213.855469 116.699219 Z M 213.855469 116.699219 " fill-opacity="1" fill-rule="nonzero"/></g><g clip-path="url(#c52f54aeb8)"><path fill="#00adef" d="M 198.683594 126.863281 L 188.421875 130.550781 C 188.097656 130.667969 187.757812 130.726562 187.417969 130.726562 C 187.082031 130.726562 186.742188 130.667969 186.417969 130.550781 L 175.796875 126.730469 C 171.011719 143.160156 157.90625 156.429688 157.90625 156.429688 C 161.6875 160.832031 165.394531 166.460938 168.867188 172.722656 L 179.390625 195.257812 C 181.351562 200.253906 184.496094 207.921875 185.949219 212.613281 L 185.621094 188.707031 C 185.785156 185.167969 185.792969 167.320312 185.699219 159.488281 C 184.554688 158.910156 183.769531 157.730469 183.769531 156.367188 C 183.769531 154.460938 185.308594 152.910156 187.21875 152.871094 C 189.132812 152.910156 190.671875 154.460938 190.671875 156.367188 C 190.671875 157.730469 189.886719 158.910156 188.738281 159.488281 C 188.648438 167.320312 188.65625 185.164062 188.816406 188.707031 L 188.492188 212.613281 C 189.945312 207.921875 193.089844 200.253906 195.050781 195.257812 L 205.574219 172.722656 C 209.046875 166.460938 212.753906 160.832031 216.535156 156.429688 C 216.535156 156.433594 203.5 143.230469 198.683594 126.863281 Z M 198.683594 126.863281 " fill-opacity="1" fill-rule="nonzero"/></g><g fill="#068ccd" fill-opacity="1"><g transform="translate(148.71707, 228.123587)"><g><path d="M 8.234375 -5.984375 C 8.742188 -5.984375 9.140625 -6.078125 9.421875 -6.265625 C 9.703125 -6.453125 9.84375 -6.757812 9.84375 -7.1875 C 9.84375 -7.570312 9.710938 -7.847656 9.453125 -8.015625 C 9.191406 -8.191406 8.773438 -8.28125 8.203125 -8.28125 L 5.1875 -8.28125 L 5.1875 -5.984375 Z M 8.765625 -10.515625 C 9.390625 -10.515625 9.941406 -10.425781 10.421875 -10.25 C 10.898438 -10.070312 11.296875 -9.832031 11.609375 -9.53125 C 11.929688 -9.226562 12.175781 -8.875 12.34375 -8.46875 C 12.507812 -8.0625 12.59375 -7.632812 12.59375 -7.1875 C 12.59375 -6.6875 12.503906 -6.234375 12.328125 -5.828125 C 12.148438 -5.421875 11.894531 -5.070312 11.5625 -4.78125 C 11.226562 -4.488281 10.832031 -4.257812 10.375 -4.09375 C 9.914062 -3.9375 9.394531 -3.859375 8.8125 -3.859375 L 5.1875 -3.859375 L 5.1875 -0.59375 C 5.1875 -0.5 5.210938 -0.421875 5.265625 -0.359375 C 5.328125 -0.304688 5.484375 -0.265625 5.734375 -0.234375 L 5.734375 0 L 1.625 0 L 1.625 -0.234375 C 1.875 -0.265625 2.03125 -0.304688 2.09375 -0.359375 C 2.15625 -0.421875 2.1875 -0.5 2.1875 -0.59375 L 2.1875 -9.921875 C 2.1875 -10.015625 2.15625 -10.085938 2.09375 -10.140625 C 2.03125 -10.203125 1.875 -10.25 1.625 -10.28125 L 1.625 -10.515625 Z M 8.765625 -10.515625 "/></g></g></g><g fill="#068ccd" fill-opacity="1"><g transform="translate(168.651813, 228.123587)"><g><path d="M 8.5625 -6.078125 C 9 -6.078125 9.359375 -6.160156 9.640625 -6.328125 C 9.929688 -6.503906 10.078125 -6.789062 10.078125 -7.1875 C 10.078125 -7.570312 9.929688 -7.847656 9.640625 -8.015625 C 9.359375 -8.191406 9 -8.28125 8.5625 -8.28125 L 5.1875 -8.28125 L 5.1875 -6.078125 Z M 8.953125 -10.515625 C 10.347656 -10.515625 11.394531 -10.257812 12.09375 -9.75 C 12.800781 -9.25 13.15625 -8.398438 13.15625 -7.203125 C 13.15625 -5.546875 12.203125 -4.453125 10.296875 -3.921875 L 12.5625 -0.734375 C 12.695312 -0.546875 12.804688 -0.421875 12.890625 -0.359375 C 12.972656 -0.296875 13.085938 -0.253906 13.234375 -0.234375 L 13.234375 0 L 9.078125 0 L 9.078125 -0.234375 C 9.265625 -0.253906 9.382812 -0.296875 9.4375 -0.359375 C 9.488281 -0.421875 9.515625 -0.484375 9.515625 -0.546875 C 9.515625 -0.609375 9.492188 -0.671875 9.453125 -0.734375 C 9.421875 -0.804688 9.367188 -0.890625 9.296875 -0.984375 C 8.941406 -1.503906 8.566406 -2.015625 8.171875 -2.515625 C 7.785156 -3.023438 7.441406 -3.503906 7.140625 -3.953125 L 5.1875 -3.953125 L 5.1875 -0.59375 C 5.1875 -0.5 5.210938 -0.421875 5.265625 -0.359375 C 5.328125 -0.304688 5.484375 -0.265625 5.734375 -0.234375 L 5.734375 0 L 1.625 0 L 1.625 -0.234375 C 1.875 -0.265625 2.03125 -0.304688 2.09375 -0.359375 C 2.15625 -0.421875 2.1875 -0.5 2.1875 -0.59375 L 2.1875 -9.921875 C 2.1875 -10.015625 2.15625 -10.085938 2.09375 -10.140625 C 2.03125 -10.203125 1.875 -10.25 1.625 -10.28125 L 1.625 -10.515625 Z M 8.953125 -10.515625 "/></g></g></g><g fill="#068ccd" fill-opacity="1"><g transform="translate(189.686126, 228.123587)"><g><path d="M 5.140625 -3.875 L 8.859375 -3.875 L 6.921875 -8.640625 Z M 9.71875 -10.515625 L 9.71875 -10.28125 C 9.5625 -10.269531 9.460938 -10.238281 9.421875 -10.1875 C 9.378906 -10.144531 9.359375 -10.101562 9.359375 -10.0625 C 9.359375 -10.019531 9.390625 -9.90625 9.453125 -9.71875 C 9.523438 -9.53125 9.679688 -9.144531 9.921875 -8.5625 L 13.0625 -0.84375 C 13.15625 -0.625 13.234375 -0.46875 13.296875 -0.375 C 13.367188 -0.28125 13.476562 -0.234375 13.625 -0.234375 L 13.625 0 L 9.6875 0 L 9.6875 -0.234375 C 9.832031 -0.253906 9.929688 -0.285156 9.984375 -0.328125 C 10.035156 -0.378906 10.0625 -0.429688 10.0625 -0.484375 C 10.0625 -0.492188 9.988281 -0.691406 9.84375 -1.078125 L 9.375 -2.28125 L 4.640625 -2.28125 L 4.125 -0.84375 C 4.039062 -0.613281 4 -0.476562 4 -0.4375 C 4 -0.382812 4.019531 -0.335938 4.0625 -0.296875 C 4.113281 -0.253906 4.210938 -0.234375 4.359375 -0.234375 L 4.359375 0 L 0.8125 0 L 0.8125 -0.234375 C 0.90625 -0.253906 0.976562 -0.273438 1.03125 -0.296875 C 1.09375 -0.328125 1.144531 -0.367188 1.1875 -0.421875 C 1.238281 -0.472656 1.28125 -0.546875 1.3125 -0.640625 C 1.351562 -0.742188 1.410156 -0.882812 1.484375 -1.0625 L 4.484375 -8.921875 C 4.585938 -9.179688 4.679688 -9.4375 4.765625 -9.6875 C 4.859375 -9.9375 4.90625 -10.070312 4.90625 -10.09375 C 4.90625 -10.125 4.878906 -10.15625 4.828125 -10.1875 C 4.785156 -10.21875 4.675781 -10.25 4.5 -10.28125 L 4.5 -10.515625 Z M 9.71875 -10.515625 "/></g></g></g><g fill="#068ccd" fill-opacity="1"><g transform="translate(210.72044, 228.123587)"><g><path d="M 6.4375 -10.515625 L 6.4375 -10.28125 C 6.207031 -10.269531 6.054688 -10.238281 5.984375 -10.1875 C 5.910156 -10.144531 5.875 -10.097656 5.875 -10.046875 C 5.875 -10.003906 5.941406 -9.894531 6.078125 -9.71875 C 6.222656 -9.539062 6.441406 -9.285156 6.734375 -8.953125 C 7.035156 -8.617188 7.378906 -8.238281 7.765625 -7.8125 L 10.734375 -4.578125 L 10.734375 -9.921875 C 10.734375 -10.148438 10.59375 -10.269531 10.3125 -10.28125 L 10.3125 -10.515625 L 13.984375 -10.515625 L 13.984375 -10.28125 C 13.722656 -10.25 13.5625 -10.203125 13.5 -10.140625 C 13.445312 -10.085938 13.421875 -10.015625 13.421875 -9.921875 L 13.421875 -0.59375 C 13.421875 -0.5 13.445312 -0.421875 13.5 -0.359375 C 13.5625 -0.304688 13.722656 -0.265625 13.984375 -0.234375 L 13.984375 0 L 10.1875 0 L 10.1875 -0.234375 C 10.363281 -0.234375 10.484375 -0.253906 10.546875 -0.296875 C 10.609375 -0.335938 10.640625 -0.390625 10.640625 -0.453125 C 10.640625 -0.523438 10.59375 -0.617188 10.5 -0.734375 C 10.40625 -0.847656 10.191406 -1.078125 9.859375 -1.421875 C 9.566406 -1.722656 9.273438 -2.03125 8.984375 -2.34375 C 8.703125 -2.65625 8.429688 -2.953125 8.171875 -3.234375 C 7.910156 -3.515625 7.671875 -3.773438 7.453125 -4.015625 C 7.234375 -4.253906 7.039062 -4.460938 6.875 -4.640625 L 4.859375 -6.875 L 4.859375 -0.59375 C 4.859375 -0.5 4.890625 -0.421875 4.953125 -0.359375 C 5.015625 -0.304688 5.171875 -0.265625 5.421875 -0.234375 L 5.421875 0 L 1.625 0 L 1.625 -0.234375 C 1.875 -0.265625 2.03125 -0.304688 2.09375 -0.359375 C 2.15625 -0.421875 2.1875 -0.5 2.1875 -0.59375 L 2.1875 -9.921875 C 2.1875 -10.023438 2.148438 -10.101562 2.078125 -10.15625 C 2.015625 -10.207031 1.863281 -10.25 1.625 -10.28125 L 1.625 -10.515625 Z M 6.4375 -10.515625 "/></g></g></g></svg>